<svg xmlns="http://www.w3.org/2000/svg" width="31" height="31" viewBox="0 0 31 31">
  <g id="Group_2226" data-name="Group 2226" transform="translate(0 -0.375)">
    <circle id="Ellipse_22" data-name="Ellipse 22" cx="15.5" cy="15.5" r="15.5" transform="translate(0 0.375)" fill="#3b5998"/>
    <g id="_20673" data-name="20673" transform="translate(9.168 8.873)">
      <path id="Path_67" data-name="Path 67" d="M6.77.349A6.8,6.8,0,0,0,5.641,13.842V8.565H4.008v-1.9H5.641v-1.4a2.284,2.284,0,0,1,2.432-2.51,13.425,13.425,0,0,1,1.458.075v1.7h-1c-.785,0-.936.374-.936.924V6.665H9.467l-.244,1.9H7.594v5.324A6.8,6.8,0,0,0,6.77.349Z" transform="translate(0 -0.349)" fill="#fff"/>
    </g>
  </g>
</svg>
