<svg xmlns="http://www.w3.org/2000/svg" width="31" height="31" viewBox="0 0 31 31">
  <g id="Group_2229" data-name="Group 2229" transform="translate(-0.13 -0.375)">
    <circle id="Ellipse_24" data-name="Ellipse 24" cx="15.5" cy="15.5" r="15.5" transform="translate(0.13 0.375)" fill="#0e76a8"/>
    <path id="_1384014" data-name="1384014" d="M6.77,0a6.77,6.77,0,1,0,6.77,6.77A6.771,6.771,0,0,0,6.77,0ZM4.8,10.235H3.154V5.274H4.8ZM3.979,4.6H3.968A.859.859,0,1,1,3.99,2.883.86.86,0,1,1,3.979,4.6Zm6.77,5.638H9.1V7.581c0-.667-.239-1.122-.835-1.122a.9.9,0,0,0-.846.6,1.129,1.129,0,0,0-.054.4v2.77H5.715s.022-4.5,0-4.961H7.364v.7A1.637,1.637,0,0,1,8.85,5.158c1.085,0,1.9.709,1.9,2.233Zm0,0" transform="translate(8.971 8.873)" fill="#fff"/>
  </g>
</svg>
