<svg id="_535188" data-name="535188" xmlns="http://www.w3.org/2000/svg" width="23.858" height="27.145" viewBox="0 0 23.858 27.145">
  <g id="Group_142" data-name="Group 142" transform="translate(3.181)">
    <g id="Group_141" data-name="Group 141">
      <path id="Path_70" data-name="Path 70" d="M99.748,0a8.744,8.744,0,0,0-7.111,13.838l6.441,10.051a.8.8,0,0,0,1.339,0L106.887,13.8A8.748,8.748,0,0,0,99.748,0Zm0,12.724a3.976,3.976,0,1,1,3.976-3.976A3.981,3.981,0,0,1,99.748,12.724Z" transform="translate(-91 0)" fill="#fff"/>
    </g>
  </g>
  <g id="Group_144" data-name="Group 144" transform="translate(0 18.275)">
    <g id="Group_143" data-name="Group 143">
      <path id="Path_71" data-name="Path 71" d="M49.146,344.7l-4,6.261a2.629,2.629,0,0,1-4.426,0L36.7,344.7c-3.529.816-5.7,2.311-5.7,4.1,0,3.1,6.146,4.772,11.929,4.772s11.929-1.672,11.929-4.772C54.858,347.006,52.679,345.511,49.146,344.7Z" transform="translate(-31 -344.695)" fill="#fff"/>
    </g>
  </g>
</svg>
