<svg id="_597177" data-name="597177" xmlns="http://www.w3.org/2000/svg" width="23.858" height="23.908" viewBox="0 0 23.858 23.908">
  <g id="Group_145" data-name="Group 145" transform="translate(0 0)">
    <path id="Path_72" data-name="Path 72" d="M23.772,17.546,20.435,14.21a2.219,2.219,0,0,0-3.694.834,2.271,2.271,0,0,1-2.622,1.43c-2.383-.6-5.6-3.694-6.2-6.2a2.16,2.16,0,0,1,1.43-2.622,2.219,2.219,0,0,0,.834-3.694L6.851.626a2.38,2.38,0,0,0-3.217,0L1.37,2.89c-2.264,2.383.238,8.7,5.839,14.3s11.916,8.222,14.3,5.839l2.264-2.264A2.38,2.38,0,0,0,23.772,17.546Z" transform="translate(-0.539 0)" fill="#fff"/>
  </g>
</svg>
