<svg xmlns="http://www.w3.org/2000/svg" width="32" height="31" viewBox="0 0 32 31">
  <g id="Group_2227" data-name="Group 2227" transform="translate(0.435 -0.375)">
    <ellipse id="Ellipse_23" data-name="Ellipse 23" cx="16" cy="15.5" rx="16" ry="15.5" transform="translate(-0.435 0.375)" fill="#00acee"/>
    <path id="_1384017" data-name="1384017" d="M6.59,0a6.59,6.59,0,1,0,6.59,6.59A6.591,6.591,0,0,0,6.59,0ZM9.6,5.138q0,.1,0,.2a4.274,4.274,0,0,1-4.3,4.3h0a4.281,4.281,0,0,1-2.318-.679,3.076,3.076,0,0,0,.361.021A3.035,3.035,0,0,0,5.22,8.331,1.514,1.514,0,0,1,3.807,7.281a1.508,1.508,0,0,0,.683-.026A1.513,1.513,0,0,1,3.277,5.772c0-.007,0-.013,0-.019a1.5,1.5,0,0,0,.685.189,1.514,1.514,0,0,1-.468-2.019A4.294,4.294,0,0,0,6.612,5.5,1.513,1.513,0,0,1,9.189,4.123a3.034,3.034,0,0,0,.96-.367,1.518,1.518,0,0,1-.665.837,3.017,3.017,0,0,0,.869-.238A3.074,3.074,0,0,1,9.6,5.138Zm0,0" transform="translate(9.069 8.873)" fill="#fff"/>
  </g>
</svg>
